<svg width="19" height="24" viewBox="0 0 19 24" fill="none" xmlns="http://www.w3.org/2000/svg">
<path fill-rule="evenodd" clip-rule="evenodd" d="M9.33333 0C9.33333 0 8.84734 0.473741 8.09716 1.26801C7.94188 1.43241 7.77529 1.61055 7.59935 1.80105C4.90015 4.72363 0 10.5583 0 14.4C0 19.702 4.17868 24 9.33333 24C14.488 24 18.6667 19.702 18.6667 14.4C18.6667 10.5583 13.7665 4.72363 11.0673 1.80105C10.8914 1.61054 10.7248 1.4324 10.5695 1.26799C9.81932 0.473733 9.33333 0 9.33333 0ZM9.33334 3.60856C8.54519 4.46601 7.58229 5.56072 6.62418 6.76681C5.50387 8.17709 4.43184 9.68767 3.6513 11.1136C2.83564 12.6037 2.5 13.7142 2.5 14.4C2.5 18.3881 5.6253 21.5 9.33333 21.5C13.0414 21.5 16.1667 18.3881 16.1667 14.4C16.1667 13.7142 15.831 12.6037 15.0154 11.1136C14.2348 9.68767 13.1628 8.17709 12.0425 6.76681C11.0844 5.56072 10.1215 4.46601 9.33334 3.60856Z" fill="url(#paint0_linear_20_8)"/>
<defs>
<linearGradient id="paint0_linear_20_8" x1="9.33333" y1="0" x2="9.33333" y2="24" gradientUnits="userSpaceOnUse">
<stop offset="0.0104167" stop-color="#D9EBF2"/>
<stop offset="1" stop-color="#9BD4EC"/>
</linearGradient>
</defs>
</svg>
