<svg width="11" height="24" viewBox="0 0 11 24" fill="none" xmlns="http://www.w3.org/2000/svg">
<path d="M6.07894 16.6709C6.07894 16.6709 6.07894 10.7999 6.07894 9.59995C6.07894 8.39995 4.42106 8.39995 4.42106 9.59995C4.42106 10.8 4.42106 16.6709 4.42106 16.6709C3.45629 17.0011 2.76318 17.8903 2.76318 18.9333C2.76318 20.2567 3.87876 21.3333 5.25002 21.3333C6.62133 21.3333 7.73686 20.2567 7.73686 18.9333C7.73681 17.8904 7.04375 17.0011 6.07894 16.6709Z" fill="url(#paint0_linear_77_8)"/>
<path d="M8.84212 15.2385V3.46669C8.84212 1.55513 7.23068 0 5.25 0C3.26932 0 1.65788 1.55513 1.65788 3.46669V15.2393C0.599465 16.1961 0 17.5215 0 18.9334C0 21.7271 2.35516 24 5.25 24C8.14484 24 10.5 21.7271 10.5 18.9333C10.5 17.5209 9.90054 16.1952 8.84212 15.2385ZM5.25 22.4C3.26932 22.4 1.65788 20.8449 1.65788 18.9333C1.65788 17.8768 2.14908 16.8907 3.00548 16.2278L3.3158 15.9877V3.46669C3.3158 2.43741 4.18348 1.60003 5.25 1.60003C6.31652 1.60003 7.1842 2.43741 7.1842 3.46669V15.987L7.49457 16.2271C8.35092 16.8899 8.84212 17.8762 8.84212 18.9333C8.84212 20.8448 7.23068 22.4 5.25 22.4Z" fill="#DFE4EC"/>
<defs>
<linearGradient id="paint0_linear_77_8" x1="5.25002" y1="8.69995" x2="5.25002" y2="21.3333" gradientUnits="userSpaceOnUse">
<stop stop-color="#FFDD99"/>
<stop offset="1" stop-color="#FF9999"/>
</linearGradient>
</defs>
</svg>
